<svg xmlns="http://www.w3.org/2000/svg" viewBox="0 0 18.65 18.65"><defs><style>.cls-1{fill:none;}</style></defs><g id="레이어_2" data-name="레이어 2"><g id="레이어_1-2" data-name="레이어 1"><path d="M4.52,13.88l9.61-9.62"/><path d="M5.58,14.94l9.61-9.62a1.51,1.51,0,0,0,0-2.12,1.53,1.53,0,0,0-2.12,0L3.45,12.82a1.5,1.5,0,0,0,2.13,2.12Z"/><path d="M4.52,4.26l9.61,9.62"/><path d="M3.45,5.32l9.62,9.62a1.53,1.53,0,0,0,2.12,0,1.51,1.51,0,0,0,0-2.12L5.58,3.2a1.54,1.54,0,0,0-2.13,0,1.53,1.53,0,0,0,0,2.12Z"/><rect class="cls-1" width="18.65" height="18.65"/></g></g></svg>