<svg xmlns="http://www.w3.org/2000/svg" viewBox="0 0 127.96 54.9"><defs><style>.cls-1{fill:#fff;}</style></defs><g id="레이어_2" data-name="레이어 2"><g id="레이어_1-2" data-name="레이어 1"><path d="M7.72,36.79,5,31.9H3.76v4.89H1.24V24.23H6a5.51,5.51,0,0,1,2.48.51A3.55,3.55,0,0,1,10,26.13a3.78,3.78,0,0,1,.51,1.95,3.72,3.72,0,0,1-.72,2.24A3.66,3.66,0,0,1,7.63,31.7l3,5.09ZM3.76,30H5.87a2.12,2.12,0,0,0,1.53-.5,1.87,1.87,0,0,0,.5-1.38,1.79,1.79,0,0,0-.5-1.34,2.21,2.21,0,0,0-1.53-.47H3.76Z" transform="translate(-0.63)"/><path d="M15.26,24.23V32a2.69,2.69,0,0,0,.67,2,2.5,2.5,0,0,0,1.87.67A2.52,2.52,0,0,0,19.69,34a2.65,2.65,0,0,0,.67-2V24.23H22.9V32a5,5,0,0,1-.7,2.71,4.42,4.42,0,0,1-1.85,1.66,5.91,5.91,0,0,1-2.58.56,5.75,5.75,0,0,1-2.55-.56,4.26,4.26,0,0,1-1.81-1.66A5.23,5.23,0,0,1,12.74,32V24.23Z" transform="translate(-0.63)"/><path d="M36.07,36.79H33.55l-5.7-8.62v8.62H25.33V24.21h2.52l5.7,8.64V24.21h2.52Z" transform="translate(-0.63)"/><path d="M51.39,24.23v2H48V36.79H45.52V26.26H42.17v-2Z" transform="translate(-0.63)"/><path d="M63.65,24.23V36.79H61.13V31.45H55.75v5.34H53.23V24.23h2.52v5.16h5.38V24.23Z" transform="translate(-0.63)"/><path d="M72.61,36.79,69.84,31.9H68.65v4.89H66.13V24.23h4.72a5.51,5.51,0,0,1,2.48.51,3.55,3.55,0,0,1,1.54,1.39,3.78,3.78,0,0,1,.51,1.95,3.72,3.72,0,0,1-.72,2.24,3.66,3.66,0,0,1-2.14,1.38l3,5.09Zm-4-6.78h2.11a2.12,2.12,0,0,0,1.53-.5,1.87,1.87,0,0,0,.5-1.38,1.79,1.79,0,0,0-.5-1.34,2.21,2.21,0,0,0-1.53-.47H68.65Z" transform="translate(-0.63)"/><path d="M80.26,36.09a6.27,6.27,0,0,1-2.34-2.29,6.82,6.82,0,0,1,0-6.63,6.2,6.2,0,0,1,2.34-2.29,6.76,6.76,0,0,1,6.49,0,6.07,6.07,0,0,1,2.32,2.29,6.82,6.82,0,0,1,0,6.63,6.17,6.17,0,0,1-2.33,2.29,6.74,6.74,0,0,1-6.48,0Zm5.24-1.93a3.69,3.69,0,0,0,1.35-1.47,4.9,4.9,0,0,0,.48-2.22,4.79,4.79,0,0,0-.48-2.2,3.57,3.57,0,0,0-1.35-1.45,3.86,3.86,0,0,0-2-.5,3.92,3.92,0,0,0-2,.5,3.53,3.53,0,0,0-1.36,1.45,4.79,4.79,0,0,0-.48,2.2,4.9,4.9,0,0,0,.48,2.22,3.65,3.65,0,0,0,1.36,1.47,3.93,3.93,0,0,0,2,.51A3.86,3.86,0,0,0,85.5,34.16Z" transform="translate(-0.63)"/><path d="M94.28,24.23V32A2.65,2.65,0,0,0,95,34a3,3,0,0,0,3.76,0,2.69,2.69,0,0,0,.67-2V24.23h2.53V32a5.05,5.05,0,0,1-.69,2.71,4.42,4.42,0,0,1-1.85,1.66,6,6,0,0,1-2.59.56,5.74,5.74,0,0,1-2.54-.56,4.26,4.26,0,0,1-1.81-1.66A5.14,5.14,0,0,1,91.76,32V24.23Z" transform="translate(-0.63)"/><path d="M113.09,28a3,3,0,0,0-1.19-1.21,3.66,3.66,0,0,0-1.76-.41,3.94,3.94,0,0,0-2,.5,3.48,3.48,0,0,0-1.35,1.44,5,5,0,0,0,0,4.36,3.55,3.55,0,0,0,1.38,1.44,4.1,4.1,0,0,0,2,.5,3.58,3.58,0,0,0,2.36-.76,3.64,3.64,0,0,0,1.2-2.14h-4.32V29.81h6.81V32a5.91,5.91,0,0,1-1.08,2.43,6,6,0,0,1-2.14,1.79,6.13,6.13,0,0,1-2.92.68,6.61,6.61,0,0,1-3.29-.82,5.93,5.93,0,0,1-2.3-2.28,6.49,6.49,0,0,1-.84-3.31,6.58,6.58,0,0,1,.84-3.32,5.93,5.93,0,0,1,2.3-2.28,7,7,0,0,1,7,.21A5.32,5.32,0,0,1,116,28Z" transform="translate(-0.63)"/><path d="M128.59,24.23V36.79h-2.52V31.45h-5.38v5.34h-2.52V24.23h2.52v5.16h5.38V24.23Z" transform="translate(-0.63)"/><path d="M10,46A3,3,0,0,0,8.8,44.8,3.66,3.66,0,0,0,7,44.39a3.88,3.88,0,0,0-2,.5,3.48,3.48,0,0,0-1.35,1.44,4.58,4.58,0,0,0-.49,2.16,4.67,4.67,0,0,0,.5,2.2,3.59,3.59,0,0,0,1.37,1.44,4.16,4.16,0,0,0,2.06.5,3.53,3.53,0,0,0,2.35-.76,3.6,3.6,0,0,0,1.21-2.14H6.39V47.81h6.8V50a5.66,5.66,0,0,1-1.08,2.43A5.9,5.9,0,0,1,10,54.22a6.13,6.13,0,0,1-2.92.68,6.58,6.58,0,0,1-3.29-.82,5.8,5.8,0,0,1-2.3-2.28,6.49,6.49,0,0,1-.84-3.31,6.58,6.58,0,0,1,.84-3.32,5.8,5.8,0,0,1,2.3-2.28A6.56,6.56,0,0,1,7,42.07a6.56,6.56,0,0,1,3.69,1A5.32,5.32,0,0,1,12.89,46Z" transform="translate(-0.63)"/><path d="M21.55,54.79,18.77,49.9H17.59v4.89H15.07V42.23h4.71a5.58,5.58,0,0,1,2.49.51,3.58,3.58,0,0,1,1.53,1.39,3.71,3.71,0,0,1-2.34,5.57l3,5.09Zm-4-6.78h2.1a2.09,2.09,0,0,0,1.53-.5,1.83,1.83,0,0,0,.51-1.38,1.76,1.76,0,0,0-.51-1.34,2.17,2.17,0,0,0-1.53-.47h-2.1Z" transform="translate(-0.63)"/><path d="M34.31,52.4h-5l-.82,2.39H25.83l4.52-12.58h2.93L37.8,54.79H35.14Zm-.69-2-1.81-5.25L30,50.38Z" transform="translate(-0.63)"/><path d="M50.78,42.23,46.17,54.79H43.11L38.5,42.23h2.7l3.46,10,3.44-10Z" transform="translate(-0.63)"/><path d="M54.81,42.23V54.79H52.29V42.23Z" transform="translate(-0.63)"/><path d="M65.84,42.23v2H62.5V54.79H60V44.26H56.63v-2Z" transform="translate(-0.63)"/><path d="M77.67,42.23l-4.25,8.19v4.37H70.9V50.42l-4.26-8.19h2.84L72.18,48l2.68-5.74Z" transform="translate(-0.63)"/><path d="M17.68,17c-1.07-.81-3.12-2.11-2.16-3.64a7.41,7.41,0,0,1,3-2.26A35.74,35.74,0,0,1,29.63,7.93a53.91,53.91,0,0,1,13.61-.15,33,33,0,0,1,11.18,2.88,7.06,7.06,0,0,1,3,2.41c1,1.75-1.07,3.13-2.3,4.08s.46,2.47,1.59,1.59c1.72-1.33,3.69-3,3.19-5.44a5.62,5.62,0,0,0-2-3.08C54.71,7.6,50.2,6.58,46.23,5.94a56.27,56.27,0,0,0-16.44-.29c-4.55.61-9.47,1.64-13.44,4.07a6.86,6.86,0,0,0-3.22,3.5c-.78,2.57,1.62,4.38,3.41,5.73,1.15.88,2.28-1.07,1.14-1.94Z" transform="translate(-0.63)"/><path class="cls-1" d="M36.5,14.86a33.84,33.84,0,0,0,12.88-2.53.81.81,0,0,0,.46-.94,13.79,13.79,0,0,0-26.68,0,.81.81,0,0,0,.46.94A33.84,33.84,0,0,0,36.5,14.86Z" transform="translate(-0.63)"/><path d="M36.5,16A36.39,36.39,0,0,0,45,15a33.16,33.16,0,0,0,3.93-1.23c1-.39,2-.81,2.11-2.05a7.09,7.09,0,0,0-.84-2.81,15.08,15.08,0,0,0-6.41-7A15.07,15.07,0,0,0,22.37,10.1c-.37,1.08-.61,2.26.45,3A13.46,13.46,0,0,0,27,14.68,36.29,36.29,0,0,0,36.5,16a1.13,1.13,0,0,0,0-2.25A33.74,33.74,0,0,1,29.71,13c-1-.21-2-.47-2.95-.77-.48-.15-1-.31-1.43-.48s-.92-.16-.94-.59a5.82,5.82,0,0,1,1-2.4,11.83,11.83,0,0,1,1.46-2.13A13.08,13.08,0,0,1,30.7,3.61,12.78,12.78,0,0,1,48.14,9.88a3.77,3.77,0,0,1,.48,1.31c0,.43-.51.44-.95.59a32.63,32.63,0,0,1-3.53,1.06,33.88,33.88,0,0,1-7.64.9A1.13,1.13,0,0,0,36.5,16Z" transform="translate(-0.63)"/></g></g></svg>